<?xml version="1.0" encoding="UTF-8"?>
<svg width="24" height="24" viewBox="0 0 24 24" xmlns="http://www.w3.org/2000/svg">
  <path d="M8 7.5C8 6.1 9.1 5 10.5 5H18C19.4 5 20.5 6.1 20.5 7.5V15C20.5 16.4 19.4 17.5 18 17.5H10.5C9.1 17.5 8 16.4 8 15V7.5ZM10.5 6.8C10.1 6.8 9.8 7.1 9.8 7.5V15C9.8 15.4 10.1 15.7 10.5 15.7H18C18.4 15.7 18.7 15.4 18.7 15V7.5C18.7 7.1 18.4 6.8 18 6.8H10.5Z" fill="#000000"/>
  <path d="M3.5 10C3.5 8.6 4.6 7.5 6 7.5H6.6V9.3H6C5.6 9.3 5.3 9.6 5.3 10V17.5C5.3 17.9 5.6 18.2 6 18.2H13.5C13.9 18.2 14.2 17.9 14.2 17.5V16.9H16V17.5C16 18.9 14.9 20 13.5 20H6C4.6 20 3.5 18.9 3.5 17.5V10Z" fill="#000000"/>
</svg>
