<?xml version="1.0" standalone="no"?><!DOCTYPE svg PUBLIC "-//W3C//DTD SVG 1.1//EN" "http://www.w3.org/Graphics/SVG/1.1/DTD/svg11.dtd"><svg t="1734264577507" class="icon" viewBox="0 0 1024 1024" version="1.1" xmlns="http://www.w3.org/2000/svg" p-id="22763" xmlns:xlink="http://www.w3.org/1999/xlink" width="128" height="128"><path d="M813.629 193.91h-603.285c-23.549 0-42.646 19.093-42.646 42.646v407.977c0 23.549 19.097 42.646 42.646 42.646h80.376v110.174c0 8.597 3.557 20.183 15.345 27.194 15.662 9.315 33.307 0.863 37.35-3.136l122.314-134.231h347.9c23.575 0 42.672-19.097 42.672-42.646v-407.977c0.001-23.549-19.096-42.646-42.671-42.646v0zM802.433 635.318h-365.082l-96.388 108.732v-108.732h-120.107v-391.136h581.577v391.136zM297.845 459.338h420.066c12.344 0 22.315-13.221 22.315-25.513 0-12.339-9.971-25.537-22.315-25.537h-420.066c-12.292 0-22.293 13.195-22.293 25.537 0 12.293 9.999 25.513 22.293 25.513v0zM298.648 355.62h420.070c12.34 0 22.315-13.225 22.315-25.542 0-12.315-9.975-24.734-22.315-24.734h-420.070c-12.289 0-22.287 12.418-22.287 24.734 0 12.32 9.999 25.542 22.287 25.542v0zM588.099 511.201h-289.451c-12.289 0-22.287 14.832-22.287 27.149 0 12.315 10.803 23.926 23.096 23.926h290.254c12.344 0 20.705-12.414 20.705-24.729-0.001-12.32-9.976-26.346-22.316-26.346v0z" fill="#272636" p-id="22764"></path></svg>