<?xml version="1.0" standalone="no"?><!DOCTYPE svg PUBLIC "-//W3C//DTD SVG 1.1//EN" "http://www.w3.org/Graphics/SVG/1.1/DTD/svg11.dtd"><svg t="1734250288717" class="icon" viewBox="0 0 1024 1024" version="1.1" xmlns="http://www.w3.org/2000/svg" p-id="14253" xmlns:xlink="http://www.w3.org/1999/xlink" width="128" height="128"><path d="M564.32 64.064c10.912 0.768 19.936 10.208 20.896 22.464l10.72 112.928a305.088 305.088 0 0 1 78.08 31.584l88.832-70.656a20.704 20.704 0 0 1 15.136-7.488l3.072 0.16c5.12 0.64 9.92 3.232 13.504 7.36l67.84 69.536c11.712 10.72 13.664 20.896 2.912 31.584l-73.664 88.832c15.68 23.168 26.56 49.856 31.712 78.144l115.648 10.688c13.664 3.2 20.992 10.72 20.992 24.096v99.008c0 13.376-7.328 20.864-20.992 24.064l-115.648 10.72c-4.384 27.968-14.72 54.368-30.272 77.056l73.696 88.832c10.752 10.72 9.28 21.44-2.912 33.184l-69.312 69.056a20.288 20.288 0 0 1-16.576 5.888l-3.328-0.096a19.712 19.712 0 0 1-11.84-5.792l-88.8-72.256c-24.32 15.36-50.656 26.56-78.08 33.184l-10.72 112.896c-1.76 12.768-12.192 21.888-23.904 20.896h-97.6c-11.744 0.96-22.176-8.128-23.936-20.896l-10.72-112.896a254.912 254.912 0 0 1-79.552-33.184l-87.36 72.256a18.976 18.976 0 0 1-15.136 5.888l-3.008 0.096a20.48 20.48 0 0 1-13.568-5.984L161.12 796.16c-12.16-12.288-13.664-22.464-2.912-33.184l73.696-87.232a328.32 328.32 0 0 1-31.744-78.112l-115.648-10.72c-13.184-3.2-20.992-10.688-20.48-26.24v-99.52c0-13.376 7.296-20.864 20.96-24.096l115.68-10.688c7.776-27.296 18.432-53.536 31.712-78.144L158.688 259.392c-10.72-10.688-9.28-20.864 2.944-31.584L230.4 160.384a21.504 21.504 0 0 1 16.576-7.488l3.424 0.416c4.48 0.928 8.576 3.392 11.712 7.072l87.36 70.656a294.624 294.624 0 0 1 79.552-31.584l10.72-112.928c1.056-13.376 11.68-23.392 23.936-22.464zM512 381.344a130.656 130.656 0 1 0 0 261.312 130.656 130.656 0 0 0 0-261.312z" fill="#2c2c2c" p-id="14254"></path></svg>