<svg xmlns="http://www.w3.org/2000/svg" viewBox="0 0 24 24" width="24" height="24"><path fill="#000000" fill-rule="evenodd" d="M11.293 15.707L11.391 15.793L11.500 15.866L11.617 15.924L11.741 15.966L11.869 15.991L12.000 16.000L12.131 15.991L12.259 15.966L12.383 15.924L12.500 15.866L12.609 15.793L12.707 15.707L18.207 10.207L18.293 10.109L18.366 10.000L18.424 9.883L18.466 9.759L18.491 9.631L18.500 9.500L18.491 9.369L18.466 9.241L18.424 9.117L18.366 9.000L18.293 8.891L18.207 8.793L18.109 8.707L18.000 8.634L17.883 8.576L17.759 8.534L17.631 8.509L17.500 8.500L17.369 8.509L17.241 8.534L17.117 8.576L17.000 8.634L16.891 8.707L16.793 8.793L12.000 13.586L7.207 8.793L7.109 8.707L7.000 8.634L6.883 8.576L6.759 8.534L6.631 8.509L6.500 8.500L6.369 8.509L6.241 8.534L6.117 8.576L6.000 8.634L5.891 8.707L5.793 8.793L5.707 8.891L5.634 9.000L5.576 9.117L5.534 9.241L5.509 9.369L5.500 9.500L5.509 9.631L5.534 9.759L5.576 9.883L5.634 10.000L5.707 10.109L5.793 10.207Z"/></svg>
